fd_5_states
version=1
nRows=47
nColumns=17
inDegrees=yes

# SIMM Motion File Header:
name fd_5_states
datacolumns 17
datarows 47
otherdata 1
range 0.487385 0.509878
endheader
time	/jointset/r_shoulder/r_shoulder_elev/value	/jointset/r_shoulder/r_shoulder_elev/speed	/jointset/r_elbow/r_elbow_flex/value	/jointset/r_elbow/r_elbow_flex/speed	/forceset/TRIlong/activation	/forceset/TRIlong/fiber_length	/forceset/TRIlat/activation	/forceset/TRIlat/fiber_length	/forceset/TRImed/activation	/forceset/TRImed/fiber_length	/forceset/BIClong/activation	/forceset/BIClong/fiber_length	/forceset/BICshort/activation	/forceset/BICshort/fiber_length	/forceset/BRA/activation	/forceset/BRA/fiber_length
      0.487385	      8.869386	    498.549369	    189.575110	    167.077641	      0.024430	      0.184050	      0.371238	      0.112137	      0.364129	      0.107196	      0.954009	      0.053504	      0.583508	      0.054865	      0.566040	      0.038326
      0.487582	      8.967813	    498.354194	    189.608072	    166.769038	      0.024419	      0.184072	      0.370386	      0.112133	      0.363301	      0.107191	      0.954477	      0.053484	      0.579703	      0.054891	      0.562422	      0.038328
      0.487724	      9.038259	    498.194390	    189.631633	    166.519458	      0.024410	      0.184187	      0.369779	      0.112130	      0.362712	      0.107188	      0.954809	      0.053470	      0.577004	      0.054909	      0.559856	      0.038330
      0.487865	      9.108684	    498.056118	    189.655155	    166.230689	      0.024402	      0.184187	      0.369175	      0.112127	      0.362126	      0.107184	      0.955138	      0.053455	      0.574326	      0.054928	      0.557309	      0.038332
      0.488070	      9.210920	    497.808611	    189.689239	    165.776304	      0.024390	      0.184208	      0.368303	      0.112122	      0.361279	      0.107179	      0.955612	      0.053434	      0.570474	      0.054956	      0.553645	      0.038334
      0.488210	      9.280265	    497.620233	    189.712313	    165.440049	      0.024382	      0.184321	      0.367715	      0.112119	      0.360708	      0.107176	      0.955931	      0.053420	      0.567884	      0.054975	      0.551181	      0.038336
      0.488349	      9.349585	    497.452898	    189.735337	    165.066110	      0.024373	      0.184320	      0.367129	      0.112115	      0.360139	      0.107172	      0.956247	      0.053406	      0.565314	      0.054995	      0.548735	      0.038337
      0.488553	      9.450759	    497.162986	    189.768861	    164.486483	      0.024361	      0.184342	      0.366278	      0.112111	      0.359312	      0.107167	      0.956705	      0.053386	      0.561596	      0.055024	      0.545196	      0.038340
      0.488692	      9.520178	    496.943703	    189.791803	    164.061240	      0.024353	      0.184455	      0.365697	      0.112107	      0.358748	      0.107164	      0.957016	      0.053372	      0.559067	      0.055044	      0.542789	      0.038342
      0.488832	      9.589567	    496.746251	    189.814684	    163.598349	      0.024345	      0.184455	      0.365119	      0.112104	      0.358186	      0.107161	      0.957325	      0.053358	      0.556557	      0.055064	      0.540399	      0.038343
      0.489035	      9.690407	    496.413170	    189.847834	    162.892799	      0.024333	      0.184476	      0.364283	      0.112099	      0.357374	      0.107156	      0.957770	      0.053337	      0.552941	      0.055094	      0.536955	      0.038346
      0.489186	      9.765297	    496.142684	    189.872373	    162.338688	      0.024325	      0.184612	      0.363665	      0.112096	      0.356774	      0.107152	      0.958098	      0.053322	      0.550279	      0.055116	      0.534419	      0.038348
      0.489337	      9.840147	    495.904437	    189.896825	    161.738240	      0.024316	      0.184607	      0.363050	      0.112092	      0.356177	      0.107148	      0.958423	      0.053307	      0.547638	      0.055138	      0.531902	      0.038350
      0.489583	      9.961992	    495.447729	    189.936458	    160.717375	      0.024302	      0.184636	      0.362055	      0.112086	      0.355210	      0.107142	      0.958947	      0.053283	      0.543380	      0.055175	      0.527845	      0.038353
      0.489723	     10.031695	    495.172976	    189.959032	    160.099076	      0.024293	      0.184686	      0.361489	      0.112083	      0.354659	      0.107138	      0.959244	      0.053269	      0.540968	      0.055196	      0.525546	      0.038355
      0.489864	     10.101359	    494.886103	    189.981518	    159.457216	      0.024285	      0.184707	      0.360925	      0.112079	      0.354112	      0.107135	      0.959539	      0.053255	      0.538573	      0.055218	      0.523263	      0.038356
      0.489944	     10.140795	    494.717238	    189.994212	    159.083694	      0.024281	      0.184739	      0.360607	      0.112078	      0.353802	      0.107133	      0.959705	      0.053247	      0.537224	      0.055230	      0.521977	      0.038357
      0.489973	     10.155415	    494.654777	    189.998911	    158.942818	      0.024279	      0.184743	      0.360489	      0.112077	      0.353688	      0.107132	      0.959766	      0.053244	      0.536726	      0.055234	      0.521501	      0.038358
      0.489997	     10.167404	    494.602967	    190.002762	    158.826570	      0.024278	      0.184748	      0.360392	      0.112076	      0.353594	      0.107131	      0.959816	      0.053242	      0.536317	      0.055238	      0.521112	      0.038358
      0.490003	     10.170070	    494.591394	    190.003618	    158.800624	      0.024486	      0.184749	      0.360435	      0.112076	      0.353638	      0.107131	      0.959772	      0.053241	      0.536227	      0.055239	      0.521025	      0.038358
      0.490008	     10.172735	    494.579811	    190.004474	    158.774576	      0.025464	      0.184750	      0.360766	      0.112076	      0.353976	      0.107131	      0.959526	      0.053241	      0.536136	      0.055240	      0.520939	      0.038358
      0.490035	     10.186061	    494.521573	    190.008751	    158.642747	      0.030298	      0.184752	      0.362417	      0.112075	      0.355661	      0.107130	      0.958300	      0.053238	      0.535683	      0.055244	      0.520507	      0.038359
      0.490170	     10.252668	    494.219273	    190.030078	    157.945511	      0.053240	      0.184754	      0.370547	      0.112072	      0.363956	      0.107127	      0.952211	      0.053225	      0.533427	      0.055265	      0.518355	      0.038360
      0.490575	     10.452592	    493.180506	    190.093555	    155.480052	      0.112645	      0.184752	      0.393851	      0.112058	      0.387711	      0.107112	      0.934315	      0.053188	      0.526739	      0.055327	      0.511975	      0.038366
      0.491080	     10.701214	    491.574879	    190.171129	    151.661826	      0.173156	      0.184751	      0.420779	      0.112035	      0.415125	      0.107089	      0.912814	      0.053146	      0.518592	      0.055405	      0.504199	      0.038372
      0.491745	     11.027446	    488.891349	    190.270045	    145.431047	      0.238414	      0.184754	      0.453185	      0.111998	      0.448071	      0.107050	      0.885774	      0.053096	      0.508169	      0.055509	      0.494245	      0.038381
      0.492609	     11.448125	    484.475093	    190.391541	    135.370502	      0.307401	      0.184769	      0.490926	      0.111941	      0.486386	      0.106993	      0.852686	      0.053038	      0.495137	      0.055642	      0.481788	      0.038392
      0.493726	     11.985187	    477.329867	    190.533970	    119.174233	      0.379468	      0.184813	      0.533801	      0.111860	      0.529851	      0.106912	      0.813015	      0.052974	      0.479094	      0.055812	      0.466439	      0.038406
      0.495159	     12.661616	    466.093315	    190.686859	     93.163647	      0.453642	      0.184921	      0.581201	      0.111754	      0.577840	      0.106807	      0.766571	      0.052902	      0.459708	      0.056020	      0.447869	      0.038424
      0.496989	     13.499185	    449.118903	    190.820587	     51.428447	      0.528691	      0.185147	      0.632135	      0.111624	      0.629340	      0.106682	      0.713593	      0.052817	      0.436756	      0.056261	      0.425851	      0.038446
      0.499276	     14.499121	    424.953744	    190.865924	    -14.295934	      0.602147	      0.185522	      0.684523	      0.111483	      0.682251	      0.106547	      0.655651	      0.052705	      0.410569	      0.056511	      0.400688	      0.038471
      0.499644	     14.654889	    420.823703	    190.858460	    -26.295531	      0.612399	      0.185589	      0.692016	      0.111463	      0.689814	      0.106529	      0.647064	      0.052685	      0.406587	      0.056545	      0.396857	      0.038475
      0.499809	     14.724172	    418.955045	    190.853668	    -31.798045	      0.616871	      0.185619	      0.695297	      0.111454	      0.693125	      0.106520	      0.643279	      0.052676	      0.404823	      0.056560	      0.395160	      0.038476
      0.499926	     14.773226	    417.620089	    190.849707	    -35.756794	      0.620005	      0.185641	      0.697602	      0.111448	      0.695451	      0.106515	      0.640612	      0.052669	      0.403577	      0.056570	      0.393961	      0.038477
      0.499988	     14.799071	    416.912797	    190.847427	    -37.863592	      0.621646	      0.185653	      0.698810	      0.111445	      0.696670	      0.106512	      0.639210	      0.052665	      0.402921	      0.056576	      0.393331	      0.038478
      0.500009	     14.807824	    416.672618	    190.846625	    -38.580243	      0.622042	      0.185657	      0.699218	      0.111444	      0.697082	      0.106511	      0.638736	      0.052664	      0.402699	      0.056578	      0.393117	      0.038478
      0.500030	     14.816572	    416.432272	    190.845807	    -39.295335	      0.621600	      0.185661	      0.699625	      0.111443	      0.697494	      0.106510	      0.638263	      0.052663	      0.402477	      0.056579	      0.392904	      0.038479
      0.500062	     14.829958	    416.063943	    190.844526	    -40.386349	      0.620908	      0.185667	      0.700248	      0.111441	      0.698122	      0.106508	      0.637539	      0.052661	      0.402138	      0.056582	      0.392577	      0.038479
      0.500223	     14.896708	    414.217396	    190.837598	    -45.770568	      0.617467	      0.185700	      0.703336	      0.111433	      0.701238	      0.106500	      0.633941	      0.052652	      0.400449	      0.056596	      0.390952	      0.038480
      0.500915	     15.180450	    406.235939	    190.798264	    -67.609298	      0.603022	      0.185875	      0.716164	      0.111400	      0.714182	      0.106470	      0.618848	      0.052610	      0.393312	      0.056650	      0.384081	      0.038487
      0.501606	     15.458683	    398.312421	    190.744554	    -87.351631	      0.589136	      0.186088	      0.728296	      0.111370	      0.726420	      0.106442	      0.604350	      0.052565	      0.386375	      0.056698	      0.377400	      0.038493
      0.502555	     15.831515	    387.680013	    190.650115	   -111.086801	      0.570940	      0.186395	      0.743899	      0.111333	      0.742156	      0.106409	      0.585369	      0.052498	      0.377171	      0.056754	      0.368531	      0.038500
      0.503781	     16.298591	    374.394441	    190.497960	   -136.078400	      0.548779	      0.186791	      0.762454	      0.111294	      0.760866	      0.106375	      0.562279	      0.052401	      0.365784	      0.056813	      0.357550	      0.038509
      0.505579	     16.954808	    355.798977	    190.228641	   -161.275425	      0.518761	      0.187355	      0.786805	      0.111253	      0.785411	      0.106340	      0.531052	      0.052239	      0.350042	      0.056876	      0.342356	      0.038521
      0.507377	     17.578498	    338.206520	    189.926104	   -173.083206	      0.491359	      0.187892	      0.808241	      0.111228	      0.807010	      0.106321	      0.502591	      0.052054	      0.335339	      0.056918	      0.328150	      0.038530
      0.508627	     17.994139	    326.514449	    189.708680	   -173.549859	      0.473665	      0.188255	      0.821671	      0.111218	      0.820540	      0.106315	      0.484238	      0.051914	      0.325673	      0.056939	      0.318802	      0.038537
      0.509878	     18.395438	    315.270877	    189.494575	   -167.796779	      0.456987	      0.188601	      0.834026	      0.111214	      0.832985	      0.106315	      0.466957	      0.051767	      0.316434	      0.056955	      0.309863	      0.038542
